<svg width="44" height="28" viewBox="0 0 44 28" fill="none" xmlns="http://www.w3.org/2000/svg">
<path d="M18.722 15.3454C19.935 15.3454 20.918 16.3287 20.918 17.5414C20.918 23.3082 16.226 28.0004 10.459 28.0004C4.692 28.0004 0 23.3084 0 17.5414V10.459C0 4.6922 4.692 0 10.459 0C16.226 0 20.918 4.692 20.918 10.459C20.918 11.6718 19.9347 12.655 18.722 12.655C17.5093 12.655 16.526 11.6717 16.526 10.459C16.526 7.1138 13.8045 4.3922 10.4592 4.3922C7.1139 4.3922 4.3924 7.1137 4.3924 10.459V17.5414C4.3924 20.8866 7.1139 23.6082 10.4592 23.6082C13.0302 23.6082 15.2328 22.0007 16.1148 19.7376H10.4594C9.2466 19.7376 8.2634 18.7543 8.2634 17.5416C8.2634 16.3289 9.24668 15.3456 10.4594 15.3456L18.722 15.3454ZM43.75 18.076C43.7508 18.1153 43.7494 18.1543 43.7477 18.1925C43.7466 18.2158 43.748 18.2388 43.7464 18.2624C43.7453 18.2776 43.7434 18.2924 43.7423 18.3075L43.7398 18.3347C43.3275 23.7599 38.7622 27.9995 33.3128 27.9995C27.546 27.9995 22.8538 23.3075 22.8538 17.5405C22.8538 16.3277 23.8371 15.3445 25.0498 15.3445C26.2625 15.3445 27.2458 16.3277 27.2458 17.5405C27.2458 20.8857 29.9673 23.6073 33.3126 23.6073C36.1711 23.6073 38.6042 21.5946 39.2218 18.8833L31.7594 11.4209C30.9018 10.5633 30.9018 9.17287 31.7594 8.31527C32.6172 7.45771 34.0074 7.45771 34.8652 8.31527L43.108 16.5581C43.1248 16.5748 43.1387 16.5927 43.1547 16.6097C43.1816 16.6385 43.2085 16.6671 43.2338 16.6973C43.2574 16.7253 43.2791 16.7538 43.301 16.7824C43.3221 16.8101 43.343 16.8379 43.3628 16.8664C43.3847 16.8983 43.4053 16.9306 43.4253 16.9633C43.4424 16.991 43.4591 17.019 43.4751 17.0476C43.4937 17.0816 43.5113 17.1156 43.5281 17.1502C43.5429 17.1801 43.5571 17.2103 43.5703 17.2411C43.5848 17.2748 43.5983 17.3086 43.6109 17.3426C43.6235 17.3763 43.6353 17.4098 43.6463 17.4441C43.6564 17.4768 43.6658 17.5092 43.6746 17.5421C43.6845 17.5786 43.6935 17.6154 43.7015 17.6527C43.7084 17.6851 43.7139 17.7175 43.7194 17.7499C43.7257 17.7875 43.7315 17.8254 43.7359 17.8636C43.7397 17.8981 43.7421 17.9327 43.7443 17.9673C43.7468 18.0032 43.7495 18.0398 43.75 18.076ZM22.8753 9.9244C22.8745 9.88542 22.8762 9.84608 22.8778 9.80764C22.8789 9.78432 22.8775 9.76127 22.8792 9.73768C22.8803 9.72256 22.8822 9.70776 22.8833 9.69264L22.8857 9.66545C23.298 4.24025 27.8633 0.00065136 33.3127 0.00065136C39.0795 0.00065136 43.7717 4.69265 43.7717 10.4597C43.7717 11.6725 42.7884 12.6557 41.5757 12.6557C40.363 12.6557 39.3797 11.6724 39.3797 10.4597C39.3797 7.11445 36.6582 4.39285 33.3129 4.39285C30.4544 4.39285 28.0213 6.40555 27.4037 9.11685L34.8661 16.5793C35.7237 17.4368 35.7237 18.8273 34.8661 19.6849C34.4373 20.1137 33.8754 20.328 33.3132 20.328C32.7511 20.328 32.1891 20.1136 31.7603 19.6849L23.5175 11.4421C23.5008 11.4253 23.4868 11.4074 23.4708 11.3904C23.4439 11.3616 23.417 11.333 23.3917 11.3028C23.3682 11.2748 23.3465 11.2463 23.3245 11.2177C23.3034 11.19 23.2825 11.1623 23.2628 11.1337C23.2408 11.1019 23.2202 11.0695 23.2002 11.0368C23.1832 11.0091 23.1664 10.9811 23.1505 10.9525C23.1318 10.9185 23.1142 10.8845 23.0975 10.8499C23.0826 10.8197 23.0687 10.7898 23.0552 10.759C23.0407 10.7256 23.0273 10.6915 23.0146 10.6575C23.002 10.624 22.9902 10.5906 22.9792 10.5563C22.9688 10.5239 22.9595 10.4912 22.9507 10.4583C22.9408 10.4215 22.9317 10.385 22.9238 10.3476C22.9169 10.3153 22.9114 10.2829 22.9059 10.2505C22.8996 10.2129 22.8938 10.175 22.8894 10.1368C22.8856 10.1023 22.8831 10.0677 22.8809 10.0331C22.8785 9.99714 22.8758 9.96065 22.8753 9.9244Z" fill="white"/>
</svg>
